<?xml version="1.0" encoding="UTF-8"?>
<svg xmlns="http://www.w3.org/2000/svg" xmlns:xlink="http://www.w3.org/1999/xlink" version="1.1" id="Ebene_1" x="0px" y="0px" viewBox="0 0 235.146 51.607" style="enable-background:new 0 0 235.146 51.607;" xml:space="preserve">
<g>
	<g>
		<path style="fill:#1D1D1B;" d="M131.952,9.402c1.594,0,2.87,0.538,3.747,1.375c1.594,1.515,1.833,3.707,1.833,5.699    c0,1.953-0.239,4.165-1.833,5.68c-0.877,0.837-2.152,1.375-3.747,1.375h-4.663V9.402H131.952z M134.941,21.499    c1.395-1.295,1.515-3.428,1.515-5.022c0-1.634-0.12-3.746-1.515-5.042c-0.717-0.678-1.813-1.017-2.989-1.017h-3.626v12.097h3.626    C133.128,22.515,134.224,22.176,134.941,21.499z"></path>
		<path style="fill:#1D1D1B;" d="M141.277,22.415c-0.817-0.956-1.315-2.312-1.315-3.826c0-1.255,0.199-2.491,0.997-3.547    c0.857-1.136,2.032-1.754,3.487-1.754c2.75,0,4.404,2.192,4.404,4.843c0,0.239,0,0.378-0.02,0.658h-7.872    c0.04,2.212,1.335,4.065,3.567,4.065c1.574,0,2.81-1.036,3.049-2.312h1.037c-0.299,1.873-2.093,3.268-4.085,3.268    C143.09,23.81,141.934,23.172,141.277,22.415z M147.813,17.892c-0.04-1.893-1.216-3.667-3.368-3.667    c-2.112,0-3.428,1.713-3.468,3.667H147.813z"></path>
		<path style="fill:#1D1D1B;" d="M151.797,13.567h0.917l0.08,1.893c0.558-1.315,2.033-2.172,3.408-2.172    c1.176,0,2.053,0.379,2.73,0.957c1.156,0.977,1.674,2.511,1.674,4.285c0,1.694-0.499,3.229-1.575,4.225    c-0.677,0.638-1.614,1.056-2.81,1.056c-1.455,0-2.87-0.817-3.428-2.092v5.779h-0.996V13.567z M158.453,21.937    c0.797-0.857,1.136-2.112,1.136-3.388c0-1.415-0.398-2.75-1.355-3.567c-0.498-0.438-1.176-0.717-2.053-0.717    c-0.896,0-1.574,0.339-2.092,0.817c-0.917,0.876-1.315,2.092-1.315,3.467c0,1.475,0.359,2.63,1.295,3.487    c0.518,0.479,1.216,0.797,2.152,0.797C157.198,22.834,157.935,22.495,158.453,21.937z"></path>
		<path style="fill:#1D1D1B;" d="M162.835,20.761c0-1.773,1.355-2.87,3.348-3.009l3.667-0.259v-0.877    c0-1.674-1.215-2.391-2.75-2.391c-1.495,0-2.73,0.717-2.83,2.212h-0.997c0.14-2.053,1.793-3.149,3.786-3.149    c2.272,0,3.787,1.116,3.787,3.408v4.922c0,0.678,0.1,1.076,0.777,1.076c0.08,0,0.199,0,0.279-0.02v0.877    c-0.14,0.04-0.319,0.06-0.479,0.06c-1.235,0-1.574-0.937-1.574-1.993c-0.538,1.415-2.052,2.192-3.587,2.192    C164.33,23.81,162.835,22.634,162.835,20.761z M169.85,18.928V18.41l-3.567,0.219c-1.535,0.1-2.431,0.937-2.431,2.112    c0,1.395,1.076,2.152,2.491,2.152C168.854,22.894,169.85,20.861,169.85,18.928z"></path>
		<path style="fill:#1D1D1B;" d="M174.592,13.567h0.917l0.08,2.052c0.438-1.395,1.793-2.152,3.208-2.152c0.299,0,0.638,0,0.937,0.1    v0.957c-0.319-0.08-0.658-0.1-0.977-0.1c-2.312,0-3.168,1.913-3.168,4.125v4.982h-0.996V13.567z"></path>
		<path style="fill:#1D1D1B;" d="M183.239,20.94v-6.457h-2.352v-0.917h2.352v-2.75l0.997-0.239v2.989h3.128v0.917h-3.128v6.317    c0,1.096,0.338,1.933,1.793,1.933c0.538,0,0.957-0.06,1.475-0.18v0.877c-0.498,0.159-0.997,0.239-1.554,0.239    C183.997,23.671,183.239,22.535,183.239,20.94z"></path>
		<path style="fill:#1D1D1B;" d="M189.894,13.567h0.917l0.08,1.953c0.458-1.335,1.674-2.232,3.129-2.232    c1.714,0,2.71,0.877,3.108,2.152c0.538-1.235,1.614-2.152,3.289-2.152c2.332,0,3.308,1.535,3.308,3.667v6.576h-0.996v-6.457    c0-1.754-0.678-2.85-2.412-2.85c-1.873,0-2.969,1.654-2.969,3.667v5.64h-1.036v-6.457c0-1.754-0.757-2.85-2.411-2.85    c-1.913,0-3.009,1.793-3.009,3.926v5.38h-0.996V13.567z"></path>
		<path style="fill:#1D1D1B;" d="M207.947,22.415c-0.817-0.956-1.315-2.312-1.315-3.826c0-1.255,0.199-2.491,0.997-3.547    c0.857-1.136,2.032-1.754,3.487-1.754c2.75,0,4.404,2.192,4.404,4.843c0,0.239,0,0.378-0.02,0.658h-7.872    c0.04,2.212,1.335,4.065,3.567,4.065c1.574,0,2.81-1.036,3.049-2.312h1.037c-0.299,1.873-2.093,3.268-4.085,3.268    C209.76,23.81,208.604,23.172,207.947,22.415z M214.483,17.892c-0.04-1.893-1.216-3.667-3.368-3.667    c-2.112,0-3.428,1.713-3.468,3.667H214.483z"></path>
		<path style="fill:#1D1D1B;" d="M218.467,13.567h0.917l0.08,1.913c0.518-1.375,2.073-2.192,3.468-2.192    c2.271,0,3.527,1.515,3.527,3.727v6.517h-0.996v-6.417c0-1.674-0.857-2.85-2.63-2.85c-2.212,0-3.368,1.833-3.368,4.045v5.221    h-0.996V13.567z"></path>
		<path style="fill:#1D1D1B;" d="M230.881,20.94v-6.457h-2.352v-0.917h2.352v-2.75l0.997-0.239v2.989h3.128v0.917h-3.128v6.317    c0,1.096,0.338,1.933,1.793,1.933c0.538,0,0.957-0.06,1.475-0.18v0.877c-0.498,0.159-0.997,0.239-1.554,0.239    C231.638,23.671,230.881,22.535,230.881,20.94z"></path>
		<path style="fill:#1D1D1B;" d="M127.907,46.545c-1.096-1.056-1.514-2.371-1.514-4.085c0-1.694,0.418-3.029,1.514-4.085    c0.718-0.677,1.714-1.176,2.989-1.176s2.272,0.499,2.989,1.176c1.096,1.056,1.515,2.392,1.515,4.085    c0,1.714-0.418,3.029-1.515,4.085c-0.717,0.678-1.714,1.176-2.989,1.176S128.625,47.223,127.907,46.545z M133.188,45.868    c0.937-0.917,1.196-2.092,1.196-3.408c0-1.295-0.259-2.491-1.196-3.408c-0.538-0.538-1.295-0.877-2.292-0.877    c-0.996,0-1.753,0.339-2.292,0.877c-0.937,0.917-1.196,2.112-1.196,3.408c0,1.315,0.259,2.491,1.196,3.408    c0.538,0.538,1.295,0.877,2.292,0.877C131.893,46.745,132.65,46.406,133.188,45.868z"></path>
		<path style="fill:#1D1D1B;" d="M139.065,38.395h-2.112v-0.917h2.112v-1.694c0-1.515,0.957-2.85,2.87-2.85    c0.578,0,1.036,0.06,1.415,0.159v0.897c-0.359-0.1-0.757-0.16-1.335-0.16c-1.295,0-1.953,0.717-1.953,1.993v1.654h3.088v0.917    h-3.088v9.047h-0.997V38.395z"></path>
		<path style="fill:#1D1D1B;" d="M154.787,33.313c2.61,0,4.643,1.255,4.643,4.025s-2.033,4.025-4.643,4.025h-3.926v6.078h-1.037    V33.313H154.787z M158.354,37.338c0-2.192-1.574-3.029-3.627-3.029h-3.866v6.058h3.866    C156.779,40.368,158.354,39.53,158.354,37.338z"></path>
		<path style="fill:#1D1D1B;" d="M163.035,33.014v6.297c0.558-1.275,2.033-2.113,3.428-2.113c2.272,0,3.567,1.435,3.567,3.667v6.576    h-0.996v-6.517c0-1.753-0.837-2.79-2.631-2.79c-2.431,0-3.368,2.172-3.368,4.324v4.982h-0.996V33.014H163.035z"></path>
		<path style="fill:#1D1D1B;" d="M172.28,51.328v-0.976c0.359,0.179,0.797,0.299,1.295,0.299c0.957,0,1.554-0.438,2.013-1.594    l0.578-1.455l-4.065-10.124h1.096l3.448,8.848l3.328-8.848h1.056l-4.563,11.917c-0.618,1.614-1.515,2.212-2.83,2.212    C172.998,51.607,172.44,51.428,172.28,51.328z"></path>
		<path style="fill:#1D1D1B;" d="M182.362,44.413h1.016c0.16,1.634,1.455,2.351,3.089,2.351c1.654,0,2.89-0.717,2.89-2.072    c0-0.877-0.618-1.614-1.833-1.773l-1.933-0.259c-1.674-0.219-2.81-1.016-2.81-2.531c0-1.774,1.714-2.93,3.587-2.93    c2.152,0,3.707,1.236,3.767,3.029h-0.997c-0.139-1.435-1.315-2.092-2.77-2.092c-1.455,0-2.57,0.777-2.57,1.893    c0,0.817,0.438,1.435,1.933,1.634l1.894,0.259c1.873,0.259,2.75,1.515,2.75,2.71c0,2.033-1.833,3.089-3.906,3.089    C184.096,47.721,182.462,46.465,182.362,44.413z"></path>
		<path style="fill:#1D1D1B;" d="M194.398,33.313v1.475h-1.355v-1.475H194.398z M194.238,37.478v9.964h-1.016v-9.964H194.238z"></path>
		<path style="fill:#1D1D1B;" d="M198.701,46.525c-1.056-1.056-1.435-2.372-1.435-4.065c0-1.714,0.358-3.049,1.435-4.085    c0.717-0.697,1.734-1.176,3.009-1.176c2.112,0,3.727,1.295,3.966,3.368h-1.056c-0.219-1.375-1.355-2.392-2.91-2.392    c-0.977,0-1.754,0.319-2.292,0.857c-0.937,0.937-1.136,2.112-1.136,3.428c0,1.295,0.219,2.471,1.156,3.408    c0.538,0.538,1.315,0.857,2.292,0.857c1.554,0,2.69-1.017,2.909-2.392h1.037c-0.259,2.053-1.874,3.368-3.966,3.368    C200.435,47.701,199.418,47.243,198.701,46.525z"></path>
		<path style="fill:#1D1D1B;" d="M207.647,44.413h1.016c0.16,1.634,1.455,2.351,3.089,2.351c1.654,0,2.89-0.717,2.89-2.072    c0-0.877-0.618-1.614-1.833-1.773l-1.933-0.259c-1.674-0.219-2.81-1.016-2.81-2.531c0-1.774,1.714-2.93,3.587-2.93    c2.152,0,3.707,1.236,3.767,3.029h-0.997c-0.139-1.435-1.315-2.092-2.77-2.092c-1.455,0-2.57,0.777-2.57,1.893    c0,0.817,0.438,1.435,1.933,1.634l1.894,0.259c1.873,0.259,2.75,1.515,2.75,2.71c0,2.033-1.833,3.089-3.906,3.089    C209.381,47.721,207.747,46.465,207.647,44.413z"></path>
	</g>
	<g>
		<path style="fill:#83B818;" d="M55.208,6.665h7.241L64.182,0l-8.974,0.001c-7.159,0-11.55,5.033-11.55,11.629v35.815h6.618V33.842    h5.179l1.693-6.618h-6.872V11.63C50.275,8.432,51.829,6.665,55.208,6.665z"></path>
		<g>
			<path style="fill:#9C9B9B;" d="M117.123,47.444l-0.001-22.339c0-7.159-4.999-11.551-11.551-11.551h-8.642     c-1.786,0-3.45,0.337-4.935,0.956l0-14.511h-6.62v47.444h0.004h6.617h0.001V25.106c0-3.378,1.757-4.932,4.934-4.932h8.642     c3.176,0,4.932,1.554,4.932,4.932v22.339H117.123z"></path>
			<path style="fill:#9C9B9B;" d="M68.57,0.016l-1.288,0L65.608,6.68h2.962c3.379,0,4.933,1.767,4.933,4.965v10.63     c0,3.198-1.554,4.967-4.933,4.967l-8.323,0l-1.717,6.662h10.04c7.159,0,11.551-5.032,11.551-11.629v-10.63     C80.12,5.048,75.728,0.016,68.57,0.016z"></path>
		</g>
	</g>
	<path style="fill:#9C9B9B;" d="M30.412,5.762l-9.276,10.9c0.442,0.259,0.851,0.567,1.211,0.926l9.159-10.761   c0.625,0.373,1.352,0.529,2.082,0.435c1.792-0.223,3.069-1.856,2.847-3.639c-0.107-0.865-0.547-1.635-1.238-2.169   c-0.69-0.535-1.545-0.77-2.415-0.66c-0.867,0.108-1.641,0.545-2.179,1.232c-0.538,0.688-0.775,1.542-0.668,2.407   C29.992,4.905,30.157,5.359,30.412,5.762z"></path>
	<path style="fill:#9C9B9B;" d="M15.384,9.073l1.243,6.955c0.474-0.12,0.968-0.191,1.479-0.191c0.011,0,0.022,0.002,0.033,0.002   l-1.254-7.013c2.016-0.692,3.308-2.716,3.043-4.849c-0.31-2.483-2.596-4.257-5.086-3.94c-2.495,0.312-4.273,2.585-3.964,5.068   C11.163,7.383,13.109,9.069,15.384,9.073z"></path>
	<path style="fill:#9C9B9B;" d="M13.03,38.909l3.874-11.168c-0.507-0.103-0.987-0.275-1.439-0.497l-3.879,11.182   c-0.425-0.066-0.851-0.075-1.271-0.022c-2.495,0.311-4.273,2.584-3.964,5.067c0.286,2.292,2.253,3.973,4.517,3.973   c0.188,0,0.379-0.012,0.57-0.036c2.494-0.311,4.272-2.583,3.963-5.066C15.217,40.864,14.34,39.604,13.03,38.909z"></path>
	<path style="fill:#9C9B9B;" d="M36.579,29.346c-0.15-1.204-0.761-2.276-1.723-3.021c-0.96-0.742-2.151-1.069-3.363-0.919   c-1.147,0.144-2.201,0.723-2.939,1.607l-4.902-2.842c-0.198,0.473-0.46,0.912-0.767,1.315l4.901,2.842   c-0.258,0.686-0.347,1.421-0.257,2.145c0.31,2.481,2.587,4.251,5.086,3.939c1.208-0.15,2.286-0.76,3.034-1.717   C36.399,31.738,36.729,30.548,36.579,29.346z"></path>
	<path style="fill:#9C9B9B;" d="M12.112,22.219c-0.007-0.123-0.019-0.245-0.019-0.37c0-0.394,0.04-0.777,0.113-1.15L6.524,20.3   c-0.224-1.782-1.865-3.056-3.652-2.826c-0.867,0.108-1.641,0.546-2.179,1.233c-0.538,0.688-0.775,1.542-0.668,2.406   c0.221,1.783,1.86,3.055,3.653,2.83c1.238-0.154,2.258-0.977,2.674-2.129L12.112,22.219z"></path>
	<circle style="fill:#83B818;" cx="18.106" cy="21.849" r="6.012"></circle>
</g>
</svg>
